<svg width="200" height="200" viewBox="0 0 200 200" fill="none" xmlns="http://www.w3.org/2000/svg">
  <!-- Background circle -->
  <circle cx="100" cy="100" r="95" fill="url(#gradient)" stroke="#1e293b" stroke-width="2"/>
  
  <!-- Gradient definition -->
  <defs>
    <linearGradient id="gradient" x1="0%" y1="0%" x2="100%" y2="100%">
      <stop offset="0%" style="stop-color:#3b82f6;stop-opacity:1" />
      <stop offset="100%" style="stop-color:#1e40af;stop-opacity:1" />
    </linearGradient>
  </defs>
  
  <!-- Warehouse icon - simplified building with shelves -->
  <g transform="translate(100, 100)">
    <!-- Building outline -->
    <path d="M -40 -30 L 0 -50 L 40 -30 L 40 40 L -40 40 Z" fill="#ffffff" stroke="#1e293b" stroke-width="2"/>
    
    <!-- Roof detail -->
    <path d="M -45 -30 L 0 -55 L 45 -30" stroke="#1e293b" stroke-width="2" fill="none"/>
    
    <!-- Shelves -->
    <line x1="-30" y1="-10" x2="30" y2="-10" stroke="#3b82f6" stroke-width="2"/>
    <line x1="-30" y1="5" x2="30" y2="5" stroke="#3b82f6" stroke-width="2"/>
    <line x1="-30" y1="20" x2="30" y2="20" stroke="#3b82f6" stroke-width="2"/>
    
    <!-- Vertical shelf dividers -->
    <line x1="-10" y1="-10" x2="-10" y2="35" stroke="#60a5fa" stroke-width="1.5"/>
    <line x1="10" y1="-10" x2="10" y2="35" stroke="#60a5fa" stroke-width="1.5"/>
    
    <!-- Door -->
    <rect x="-8" y="25" width="16" height="15" fill="#1e293b" rx="1"/>
  </g>
  
  <!-- Letter Z integrated into design -->
  <path d="M 60 160 L 100 160 L 60 180 L 100 180" stroke="#ffffff" stroke-width="4" fill="none" stroke-linecap="round" stroke-linejoin="round"/>
  
  <!-- Text -->
  <text x="100" y="195" font-family="Arial, sans-serif" font-size="14" font-weight="bold" fill="#1e293b" text-anchor="middle">ZENITH WMS</text>
</svg>
